<svg xmlns="http://www.w3.org/2000/svg" xmlns:xlink="http://www.w3.org/1999/xlink" width="631.508" height="159.7" viewBox="0 0 631.508 159.7">
  <defs>
    <clipPath id="clip-path">
      <rect id="Rectangle_371" data-name="Rectangle 371" width="631.508" height="159.7" transform="translate(0 4.36)" fill="#aeb3bd"/>
    </clipPath>
  </defs>
  <g id="logo_Vrbo_1_" data-name="logo Vrbo (1)" transform="translate(0 -4.36)" clip-path="url(#clip-path)">
    <path id="Tracé_1360" data-name="Tracé 1360" d="M126.821,164.06H32.809A32.866,32.866,0,0,1,0,131.181V37.17A32.852,32.852,0,0,1,32.809,4.36h94.011A32.806,32.806,0,0,1,159.63,37.17v94.011A32.777,32.777,0,0,1,126.821,164.06Z" transform="translate(0 0)" fill="#0e214b" opacity="0.396"/>
    <path id="Tracé_1361" data-name="Tracé 1361" d="M341.185,52.3c10.3,1.4,17.245,9.044,15.844,24.116-3.433,37.015-35.543,74.872-83.074,73.821l-1.472-.07.14-.281c46.55.141,75.713-38.978,78.868-73.681,1.262-13.6-4.978-20.541-14.09-21.8-13.46-1.893-29.725,6.31-39.54,20.19l-.35.491-.141-.21C307.745,59.172,326.042,50.2,341.185,52.3Zm95.554-.491C468.288,53.634,477.4,76.7,477.19,89.318c-.561,33.861-26.919,57.626-72,60.781l-1.4.07.07-.21c42-3.225,67.863-30.356,68.424-63.936.209-11.5-7.64-31.2-34.912-33.861l-.84-.07ZM270.028,15.076c4.7,6.169-1.122,18.718-4.417,27.131l-.14.35-26.009,67.582c-1.753,4.487-3.785,9.534-4.276,15-1.122,12.689,10.025,23.625,32.038,24.747l.7.071-.07.21c-25.589-.771-37.857-13.39-36.665-27.341.49-5.468,2.173-9.885,3.785-14.091l.211-.561,25.869-67.091c.28-.842.561-1.612.911-2.454l.281-.841a8.484,8.484,0,0,1,.491-1.192l.28-.771c2.8-7.431,5.118-14.3,1.262-18.928l-.21-.21v-.351ZM432.114,51.531l-.074.211c-39.259,3.154-67.858,30.566-68.488,63.936-.214,11.5,7.849,31.617,34.982,33.931l.84.07-.07.21c-31.619-1.823-40.729-25.1-40.521-37.717C359.343,78.171,388.156,54.265,432.114,51.531Zm-98.64,5.328c8.342,1.192,13.669,7.291,12.547,19.279-3.01,32.249-31.756,72.349-72,73.4h-1.192l.07-.211c36.735-2.243,65.058-43.4,67.862-73.33.981-10.516-3.856-15.984-11.007-16.965-10.375-1.4-23.135,5.328-31.267,16.334l-.35.42-.14-.21C306.833,62.607,321.485,55.176,333.474,56.859Zm102.982-4.487C460.712,54.335,468.144,71.791,468,82.447a68.712,68.712,0,0,1-62.671,67.021l-1.123.07.069-.211c33.581-3.435,58.538-37.787,59.1-70.246.139-9.534-6.8-24.116-26.433-26.43l-.561-.07ZM282.3,12.552c4,5.4-3.225,21.382-5.889,28.182l-.14.281-28.182,72.839c-1.753,4.277-4.277,10.726-4.767,16.194-.911,10.376,7.992,18.228,24.326,19.279h.491l-.07.211c-19.77-.771-29.795-10.235-28.813-21.873.491-5.468,2.594-10.867,4.347-15.213l.21-.561L271.08,41.155c2.944-7.291,8.9-20.331,4.977-26.64l-.21-.28v-.351ZM431.831,52.161l-.07.211c-32.6,3.435-58.4,38.418-58.961,70.246-.139,9.534,5.678,24.326,26.219,26.5l.631.07-.07.211c-24.257-1.612-31.758-19.63-31.544-30.286C368.529,86.373,395.3,54.9,431.831,52.161ZM294.915,9.958c2.033,5.959-6.309,25.168-7.992,29.584l-.07.14L256.778,117.43c-1.753,4.487-4.557,11.848-5.048,17.316-.491,5.749,2.383,9.815,8.2,11.918a37.293,37.293,0,0,0,8.413,2.033h.14l-.07.211c-14.161-.982-21.733-7.361-20.891-16.685.42-5.118,3.014-11.778,4.837-16.264l.211-.491,29.374-75.994c1.963-5.048,9.885-22.784,7.01-27.762l-.14-.21V11.15ZM436.177,53c16.964,1.893,22.573,13.951,22.434,22.574-.561,31.477-23.974,69.475-53.278,73.26l-.914.07.139-.211c25.588-3.435,48.866-45.288,49.428-76.485.139-7.571-4.491-16.825-17.456-19l-.492-.07ZM326.042,61.486c6.029.842,10.1,5.538,9.254,14.442-2.453,26.78-27.341,68-61.062,72.769l-1.052.141.07-.211c30.987-6.52,54.262-48.513,56.575-73.05.7-7.221-2.524-11.217-7.712-11.918-7.22-.982-16.4,4-23.065,12.479l-.35.421-.14-.211C305.5,66.393,316.858,60.224,326.042,61.486ZM47.724,24.891c.07.07.14.07.21.14l.211.14c3.3,2.454,7.01,6.029,10.515,22.083l.141.561L80.533,148.627H75.626S54.1,48.726,54.033,48.586C50.949,34.5,47.023,28.4,39.241,25.171l-.351-.14v-.21Zm16.334,0c.07.561.14,1.052.21,1.612l.071.421c.561,4.136,1.332,8.272,3.855,19.139l.141.561L90.348,148.7H85.441L63.5,46.974C60.623,35.2,59.572,29.728,56.067,25.311l-.211-.21v-.21ZM431.553,52.722l-.144.211c-24.674,3.435-48.931,46.059-49.492,76.485-.139,7.571,4.486,17.176,17.456,19l.422.07-.144.21c-16.751-1.4-22.573-14.161-22.434-22.854C377.922,94.856,402.6,55.807,431.553,52.722ZM157.159,66.673c2.734,0,4.347,1.542,4.487,4.487.14,2.594-1.613,7.922-3.716,13.39l-.35.912-.421,1.052c-1.613,4.066-3.3,8.062-4.487,11.006l-.211.421L132.2,148.627h-5.048L147.624,97.59c2.734-6.66,9.534-22.083,9.324-26.219-.07-1.963-1.122-2.734-2.664-2.734-3.646,0-10.025,9.114-14.162,18.367l-.21.421h-.28C143.838,76.839,150.779,66.673,157.159,66.673Zm5.4-3.715c5.048,0,7.922,3.154,8.2,7.641.351,6.73-5.188,19.489-8.483,27.551l-.211.421-19.7,50.055h-5.048l20.12-50.476c2.874-7.641,8.974-21.312,8.693-27.411-.211-3.715-2.454-5.889-6.309-5.889-8.763,0-16.054,11.007-20.4,22.083l-.14.421H139C143.067,74.806,151.62,62.958,162.556,62.958Zm10.867-7.642c9.744,0,15.073,6.239,15.493,14.3.491,9.184-2.734,18.087-6.239,26.991l-.561,1.332-.421.982-.42.981-18.648,48.723h-5.048l19-49.074c3.576-9.6,8.062-20.12,7.572-29.725-.351-7.221-5.118-12.549-13.671-12.549-17.876,0-28.112,14.021-32.669,29.654l-.14.491h-.21C141.665,70.389,153.3,55.316,173.423,55.316Zm-5.4,3.716c7.361,0,11.5,4.7,11.848,10.936.421,8.623-4.347,19.63-7.782,28.533l-.21.561-19.209,49.494h-5.258l19.559-49.7c3.435-8.623,8.623-20.962,8.2-28.533-.281-5.468-3.786-9.394-10.025-9.394-13.039,0-22.083,12.549-26.57,25.939l-.141.421h-.21C142.507,72.773,152.181,59.032,168.025,59.032ZM226.212,51.6c6.449,0,11.708,4.137,12.128,13.11.982,18.367-15.563,33.37-33.721,36.314l-.561.071-.14-.211c15.564-3.505,30.986-17.6,30.075-34.211-.421-7.852-5.048-11.567-10.727-11.567-10.445,0-19.559,8.833-25.237,20.541-.071.561-.071,1.192-.141,1.823,5.188-10.8,13.25-19.068,22.294-19.068,5.048,0,8.9,3.295,9.254,10.165.772,14.3-12.619,28.252-25.518,31.757l-.421.07-.21-.21c10.656-3.926,22.434-17.246,21.8-29.725-.281-5.678-3.576-8.623-7.852-8.623-7.852,0-14.863,7.922-19.7,17.947-.141.771-.211,1.472-.351,2.243C201.465,72.7,207.7,65.2,214.154,65.2c3.856,0,6.38,2.524,6.59,7.22.561,10.446-8.833,23.135-17.526,27.271l-.281.14-.21-.21c6.379-4.136,14.091-16.615,13.67-25.238-.21-3.505-2.033-5.678-5.118-5.678-5.188,0-10.656,7.361-14.652,15.984-.351,1.4-.7,2.734-1.192,4.137,3.716-8.623,8.693-16.755,12.619-16.755,2.524,0,3.576,1.753,3.716,4.276.351,6.38-4.7,18.368-9.254,22.644l-.211.21-.21-.21c4-7.151,5.819-15.564,5.468-20.611-.141-1.332-.631-2.874-2.384-2.874-2.1,0-5.819,6.169-9.184,12.829l-.351.771-.35.771a3.721,3.721,0,0,0-.351.771l-.21.351c-.912,2.664-1.963,5.4-3.015,8.272l-.42,1.122L173,148.487h-5.048l18.438-48.513c3.926-10.376,7.712-19.349,7.151-30.916-.491-8.833-6.45-15.634-17.316-15.634-22.5,0-34.282,15.7-38.768,33.3l-.141.561h-.21c4.136-19,16.685-35.754,41.923-35.754,12.058,0,18.648,7.642,19.209,17.386.07,1.542.07,3.015.07,4.417C204.339,60.855,214.5,51.6,226.212,51.6ZM307.675,7.364c1.683,1.823-9.955,30.286-10.937,32.879v.07l-31.337,80.9c-1.542,4.137-5.048,13.25-5.538,18.3-.421,5.188,3.435,7.712,8.553,8.693l.28.071-.14.21c-7.641-1.192-13.39-4.767-12.829-11.287.421-5.118,3.365-12.9,5.118-17.526l.141-.421L291.62,39.893c.771-2.173,3.085-7.712,5.188-13.741l.351-1.052c2.1-6.029,4-12.268,4-15.844V8.7ZM435.9,53.634c9.811,1.612,13.6,8.483,13.457,15.143-.561,30.286-22.434,75.574-43.953,79.5l-.631.07.139-.211c17.456-3.224,39.19-52.789,39.751-82.654.07-5.538-2.245-9.674-8.415-11.427l-.348-.07ZM318.331,66.042c4.066.561,6.52,3.856,6.029,9.394-1.963,21.452-25.167,64.917-50.055,72.489l-.771.21.14-.28c21.8-9.464,43.606-53.49,45.358-72.489.351-4.137-1.542-6.73-4.417-7.081-4.347-.631-10.445,3.155-15.073,8.623l-.28.351-.141-.21C304.59,69.828,312.3,65.2,318.331,66.042ZM431.269,53.354l-.139.21c-16.895,3.435-39.468,53.911-39.96,82.654-.07,5.608,1.962,10.235,8.624,11.568l.348.07-.139.21c-10.233-1.122-13.6-8.693-13.462-15.353C387.1,103.128,410.311,56.438,431.269,53.354ZM320.854,4.771,274.024,125c-1.753,4.487-5.748,13.67-6.169,18.789-.14,1.963.491,3.435,1.122,3.855l.07.071-.14.35c-.421-.14-.7-.28-1.052-.421a7.013,7.013,0,0,1-3.786-5.889c.21-4.978,3.786-13.881,5.538-18.3l.14-.35,31.9-82.514c.281-.842,3.856-9.674,7.151-18.227l.35-.981c2.8-7.361,5.4-14.231,5.328-15.213V6.1ZM77.519,24.891c-1.262,4.136-2.033,10.165,1.052,23.135l.14.631,18.228,86.3-3.225,6.8L73.242,46.413c-2.1-9.254-2.664-14.021-2.8-18.368V24.961Zm14.3,0v.21c-4.487,4-5.678,11.077-3.084,24.467l.14.561,14.652,71.017-3.3,6.87L83.688,48.8c-2.734-13.39-2.033-18.648.28-23.7l.071-.21Zm20.261,0v.21C99.532,27.485,95.887,34.5,98.971,50.479l11.077,56.856-3.3,6.94L94.063,50.62c-3.926-18.578,2.8-23.836,6.24-25.589l.21-.07Zm60.641,0v.21c-19,5.748-27.551,16.755-42.133,44.1l-.42.841-.351-.21c12.829-27.411,19-38.7,29.094-44.8l.28-.21C159.191,24.891,172.722,24.891,172.722,24.891Zm-22.784,0v.21a68.609,68.609,0,0,0-4.627,8.062l-.281.631c-3.3,6.66-7.361,16.475-15.213,35.193l-.28.7-.351-.211c7.782-21.732,11.778-32.388,10.866-43.816v-.7C139.983,24.891,149.938,24.891,149.938,24.891Zm-17.667,0c6.8,6.87,4.417,18.227-3.154,43.535l-.211.771-.35-.211c7.221-28.6,4.908-39.82-5.678-43.746l-.351-.14v-.21Z" transform="translate(154.303 1.627)" fill="#0e214b" fill-rule="evenodd" opacity="0.398"/>
    <path id="Tracé_1362" data-name="Tracé 1362" d="M24.282,48.087l.28.21c6.73-22.293,8.9-32.108,2.944-38.137H19.023v.21C28.488,13.665,30.661,23.2,24.282,48.087Z" transform="translate(75.478 23.012)" fill="#dfe3e7"/>
    <path id="Tracé_1363" data-name="Tracé 1363" d="M45.909,10.16c-8.973,5.188-14.3,14.862-25.589,38.7l.281.211c12.969-24.116,20.33-33.721,37.086-38.7v-.21Z" transform="translate(80.623 23.012)" fill="#dfe3e7" fill-rule="evenodd"/>
    <path id="Tracé_1364" data-name="Tracé 1364" d="M20.2,48.508l.281.21C31.132,23.69,33.866,16.89,38.282,10.37v-.21H29.66v.28C30.571,20.4,27.066,29.579,20.2,48.508Z" transform="translate(80.127 23.012)" fill="#dfe3e7"/>
    <path id="Tracé_1365" data-name="Tracé 1365" d="M12.016,10.16H4.375v.21c7.011,2.734,10.376,7.992,13.18,20.26,0,.14,18.788,86.089,18.788,86.089H40.62L21.691,29.93C18.4,15.067,14.961,12.333,12.016,10.16Z" transform="translate(17.358 23.012)" fill="#dfe3e7" fill-rule="evenodd"/>
    <path id="Tracé_1366" data-name="Tracé 1366" d="M30.107,110.691l2.8-5.819L17.068,30.561c-2.8-11.568-2.173-16.825-.982-20.4H9.917c-.07,4.7.14,8.553,2.384,18.437Z" transform="translate(39.304 23.012)" fill="#dfe3e7" fill-rule="evenodd"/>
    <path id="Tracé_1367" data-name="Tracé 1367" d="M14.491,10.16H7.34v.21c3.225,3.856,4.136,8.553,6.66,18.859L33.068,116.79h4.277L18.276,28.878A160.247,160.247,0,0,1,14.491,10.16Z" transform="translate(29.122 23.012)" fill="#dfe3e7"/>
    <path id="Tracé_1368" data-name="Tracé 1368" d="M27.867,98.914l2.874-5.889L17.983,31.893C15.6,20.045,16.65,13.875,20.576,10.37v-.21h-6.8c-2.1,4.416-2.734,8.833-.35,20.611Z" transform="translate(47.208 23.012)" fill="#dfe3e7"/>
    <path id="Tracé_1369" data-name="Tracé 1369" d="M14.837,32.258C11.4,15.923,17.571,11.577,20.446,10.175h10.1v.21C19.6,12.488,16.45,18.447,19.114,32.258l9.674,48.933L25.914,87.15Z" transform="translate(54.849 23.069)" fill="#dfe3e7"/>
  </g>
</svg>
